<?xml version="1.0" encoding="UTF-8"?>
<!-- Generator: Adobe Illustrator 26.1.0, SVG Export Plug-In . SVG Version: 6.00 Build 0)  -->
<svg xmlns="http://www.w3.org/2000/svg" xmlns:xlink="http://www.w3.org/1999/xlink" version="1.1" id="Layer_1" x="0px" y="0px" width="638.687px" height="638.687px" viewBox="0 0 638.687 638.687" xml:space="preserve">
<path id="_x23_000000_00000013183328634039887950000014259038914085361292_" d="M611.172,195.038  c-16.085-38.028-39.109-72.179-68.435-101.505c-29.325-29.326-63.477-52.35-101.504-68.435C401.858,8.444,360.035,0,316.927,0  c-43.108,0-84.93,8.444-124.305,25.099c-38.028,16.085-72.179,39.109-101.504,68.435c-29.326,29.325-52.351,63.477-68.435,101.505  C6.028,234.413-2.416,276.236-2.416,319.343c0,43.107,8.444,84.93,25.099,124.305c16.085,38.028,39.109,72.179,68.435,101.505  c29.325,29.325,63.476,52.35,101.504,68.435c39.375,16.654,81.198,25.099,124.305,25.099c43.108,0,84.93-8.444,124.305-25.099  c38.027-16.084,72.179-39.109,101.504-68.435c29.325-29.326,52.35-63.477,68.435-101.505  c16.654-39.375,25.099-81.198,25.099-124.305C636.27,276.236,627.826,234.413,611.172,195.038z"></path>
<path id="_x23_000000" d="M529.622,340.969c11.221,1.56,20.222,0.612,24.668-0.112c1.502-0.245,3.066,0.333,3.906,1.602  c1.048,1.583,0.794,3.613-0.548,4.881l0,0c-3.017,2.85-9.184,6.982-19.812,7.546c-1.027,0.054-1.88,0.803-2.092,1.81  c-10.084,48.055-35.889,91.789-73.533,124.125c-40.6,34.874-92.196,54.277-145.284,54.277c-53.088,0-104.684-19.403-145.284-54.277  c-37.644-32.335-63.449-76.07-73.533-124.125c-0.211-1.006-1.065-1.755-2.092-1.81c-10.628-0.564-16.795-4.696-19.812-7.546l0,0  c-1.342-1.268-1.596-3.298-0.548-4.881c0.84-1.268,2.404-1.846,3.906-1.602c4.446,0.725,13.447,1.672,24.668,0.112  c11.336-1.575,19.796-4.995,23.83-6.893c1.652-0.776,3.606-0.29,4.699,1.224c0.908,1.257,0.892,2.97,0.088,4.296  c-2.235,3.686-7.277,9.489-17.876,12.846c-1.123,0.356-1.804,1.51-1.553,2.661c20.627,94.467,105.98,164.685,203.506,164.685  s182.879-70.219,203.506-164.685c0.251-1.151-0.43-2.305-1.553-2.661c-10.599-3.358-15.64-9.16-17.876-12.846  c-0.804-1.326-0.819-3.039,0.088-4.296c1.093-1.514,3.047-2,4.699-1.224C509.825,335.974,518.285,339.394,529.622,340.969z   M392.547,289.188c18.991,0,34.386-35.016,34.386-78.21c0-43.194-15.395-78.21-34.386-78.21c-18.991,0-34.386,35.016-34.386,78.21  C358.161,254.172,373.557,289.188,392.547,289.188z M611.172,195.038c16.654,39.375,25.099,81.198,25.099,124.305  c0,43.107-8.444,84.93-25.099,124.305c-16.085,38.028-39.109,72.179-68.435,101.505c-29.325,29.325-63.477,52.35-101.504,68.435  c-39.375,16.654-81.198,25.099-124.305,25.099c-43.108,0-84.93-8.444-124.305-25.099c-38.028-16.084-72.179-39.109-101.504-68.435  c-29.326-29.326-52.351-63.477-68.435-101.505C6.028,404.274-2.416,362.451-2.416,319.343c0-43.108,8.444-84.93,25.099-124.305  c16.085-38.028,39.109-72.179,68.435-101.505c29.325-29.326,63.476-52.35,101.504-68.435C231.997,8.444,273.82,0,316.927,0  c43.108,0,84.93,8.444,124.305,25.099c38.027,16.084,72.179,39.109,101.504,68.435C572.063,122.859,595.087,157.01,611.172,195.038z   M620.962,319.343c0-167.646-136.389-304.035-304.035-304.035S12.892,151.698,12.892,319.343  c0,167.646,136.39,304.036,304.036,304.036S620.962,486.989,620.962,319.343z M241.307,289.188c18.991,0,34.386-35.016,34.386-78.21  c0-43.194-15.395-78.21-34.386-78.21s-34.386,35.016-34.386,78.21C206.921,254.172,222.316,289.188,241.307,289.188z"></path>
<path id="_x23_F7EC13" fill="#F7EC13" d="M316.927,15.308c-167.645,0-304.036,136.39-304.036,304.035  c0,167.646,136.39,304.036,304.036,304.036s304.035-136.39,304.035-304.036C620.962,151.698,484.573,15.308,316.927,15.308z   M392.547,132.767c18.991,0,34.386,35.016,34.386,78.21c0,43.194-15.395,78.21-34.386,78.21c-18.991,0-34.386-35.016-34.386-78.21  C358.161,167.783,373.557,132.767,392.547,132.767z M241.307,132.767c18.991,0,34.386,35.016,34.386,78.21  c0,43.194-15.395,78.21-34.386,78.21s-34.386-35.016-34.386-78.21C206.921,167.783,222.316,132.767,241.307,132.767z   M557.647,347.34c-3.017,2.85-9.184,6.982-19.812,7.546c-1.027,0.054-1.88,0.803-2.092,1.81  c-10.084,48.055-35.889,91.789-73.533,124.125c-40.6,34.874-92.196,54.277-145.284,54.277c-53.088,0-104.684-19.403-145.284-54.277  c-37.644-32.335-63.449-76.07-73.533-124.125c-0.211-1.006-1.065-1.755-2.092-1.81c-10.628-0.564-16.795-4.696-19.812-7.546l0,0  c-1.342-1.268-1.596-3.298-0.548-4.881c0.84-1.268,2.404-1.846,3.906-1.602c4.446,0.725,13.447,1.672,24.668,0.112  c11.336-1.575,19.796-4.995,23.83-6.893c1.652-0.776,3.606-0.29,4.699,1.224c0.908,1.257,0.892,2.97,0.088,4.296  c-2.235,3.686-7.277,9.489-17.876,12.846c-1.123,0.356-1.804,1.51-1.553,2.661c20.627,94.467,105.98,164.685,203.506,164.685  s182.879-70.219,203.506-164.685c0.251-1.151-0.43-2.305-1.553-2.661c-10.599-3.358-15.64-9.16-17.876-12.846  c-0.804-1.326-0.819-3.039,0.088-4.296c1.093-1.514,3.047-2,4.699-1.224c4.034,1.898,12.494,5.318,23.83,6.893  c11.221,1.56,20.222,0.612,24.668-0.112c1.502-0.245,3.066,0.333,3.906,1.602C559.243,344.041,558.989,346.071,557.647,347.34  L557.647,347.34z"></path>
<g>
</g>
<g>
</g>
<g>
</g>
<g>
</g>
<g>
</g>
</svg>
